<?xml version="1.0" encoding="UTF-8"?>
<svg width="10px" height="12px" viewBox="0 0 10 12" version="1.1" xmlns="http://www.w3.org/2000/svg" xmlns:xlink="http://www.w3.org/1999/xlink">
    <!-- Generator: Sketch 51.2 (57519) - http://www.bohemiancoding.com/sketch -->
    <title>delete_icon</title>
    <desc>Created with Sketch.</desc>
    <defs></defs>
    <g id="delete_icon" stroke="none" stroke-width="1" fill="none" fill-rule="evenodd" opacity="0.484010417">
        <g id="delete-button" fill="#000000" fill-rule="nonzero">
            <g id="Shape">
                <path d="M8.24383534,1.43769964 L6.3959315,1.43769964 C6.30375039,0.629713388 5.62366252,0 4.7999877,0 C3.97633748,0 3.29634804,0.629688514 3.20416693,1.43769964 L1.35616466,1.43769964 C0.608331304,1.43769964 0,2.05278704 0,2.80868687 L0,2.8790309 C0,3.45668275 0.355829888,3.95110576 0.857092323,4.15256131 L0.857092323,10.6290128 C0.857092323,11.3849375 1.46549745,12 2.21328159,12 L7.38674302,12 C8.13455176,12 8.74290768,11.3848877 8.74290768,10.6290128 L8.74290768,4.15258618 C9.2441455,3.95110576 9.6,3.45668275 9.6,2.87905578 L9.6,2.80871175 C9.6,2.05278704 8.99161948,1.43769964 8.24383534,1.43769964 Z M4.7999877,0.650184794 C5.26844783,0.650184794 5.65946698,0.989592251 5.74598828,1.43769964 L3.85415937,1.43769964 C3.94065606,0.989567377 4.33169981,0.650184794 4.7999877,0.650184794 Z M8.0996824,10.6290128 C8.0996824,11.0264516 7.77978002,11.3498401 7.38671841,11.3498401 L2.21325698,11.3498401 C1.82019538,11.3498401 1.50029299,11.0264267 1.50029299,10.6290128 L1.50029299,4.25001814 L8.0996824,4.25001814 L8.0996824,10.6290128 Z M8.95677473,2.8790309 C8.95677473,3.2764697 8.63687234,3.59985822 8.24381073,3.59985822 L1.35616466,3.59985822 C0.963103053,3.59985822 0.643200664,3.2764697 0.643200664,2.8790309 L0.643200664,2.80868687 C0.643200664,2.41124808 0.963103053,2.08785956 1.35616466,2.08785956 L8.24383534,2.08785956 C8.63689695,2.08785956 8.95679934,2.41124808 8.95679934,2.80868687 L8.95679934,2.8790309 L8.95677473,2.8790309 Z"></path>
                <path d="M3.3,10.2 C3.4656898,10.2 3.6,10.0581435 3.6,9.88327678 L3.6,6.31677169 C3.6,6.14188076 3.46566685,6 3.3,6 C3.13433315,6 3,6.14188076 3,6.31677169 L3,9.88327678 C2.99997704,10.058192 3.1343102,10.2 3.3,10.2 Z"></path>
                <path d="M4.49998852,10.2 C4.66567198,10.2 4.8,10.0581435 4.8,9.88327678 L4.8,6.31677169 C4.8,6.14188076 4.66562608,6 4.49998852,6 C4.33432802,6 4.2,6.14188076 4.2,6.31677169 L4.2,9.88327678 C4.2,10.058192 4.33430506,10.2 4.49998852,10.2 Z"></path>
                <path d="M6.30002296,10.2 C6.4656898,10.2 6.6,10.0581435 6.6,9.88327678 L6.6,6.31677169 C6.6,6.14188076 6.46566685,6 6.30002296,6 C6.1343102,6 6,6.14188076 6,6.31677169 L6,9.88327678 C5.99997704,10.058192 6.13435611,10.2 6.30002296,10.2 Z"></path>
            </g>
        </g>
    </g>
</svg>